<svg xmlns="http://www.w3.org/2000/svg" viewBox="0 0 55.35 66.31"><defs><style>.cls-1{fill:none;stroke:#fff;stroke-linecap:round;stroke-linejoin:round;stroke-width:2.06px;}</style></defs><g id="Layer_2" data-name="Layer 2"><g id="Layer_1-2" data-name="Layer 1"><path class="cls-1" d="M35.33,65.28V49.85a7.2,7.2,0,0,0-.31-3,2.9,2.9,0,0,0-1.25-1.25,7.12,7.12,0,0,0-3-.31h-8a7.12,7.12,0,0,0-3,.31,3,3,0,0,0-1.25,1.25,7.2,7.2,0,0,0-.31,3V65.28m34.3,0H1M46.72,19.76c0,.85,0,1.89,0,3.21V65.28m-40,0V23c0-3.2,0-4.8.63-6a5.73,5.73,0,0,1,2.49-2.5c1.23-.62,2.83-.62,6-.62H35.58"/><path class="cls-1" d="M40,1V4.34M46.61,1V4.34M40,19.77v3.31M51,8.75h3.3M51,14.26h3.3m-22-5.51h3.31m5.29,11h4.85c1.86,0,2.78,0,3.49-.36A3.31,3.31,0,0,0,50.66,18c.36-.71.36-1.64.36-3.49V9.63c0-1.85,0-2.78-.36-3.49A3.31,3.31,0,0,0,49.21,4.7c-.71-.36-1.63-.36-3.49-.36H40.87c-1.85,0-2.78,0-3.48.36a3.26,3.26,0,0,0-1.45,1.44c-.36.71-.36,1.64-.36,3.49v4.85c0,1.85,0,2.78.36,3.49a3.26,3.26,0,0,0,1.45,1.44C38.09,19.77,39,19.77,40.87,19.77Z"/></g></g></svg>